<?xml version="1.0" encoding="UTF-8" standalone="no"?>
<!-- Created with Inkscape (http://www.inkscape.org/) -->

<svg
   version="1.1"
   id="svg1"
   width="1868.0116"
   height="500"
   viewBox="0 0 1868.0115 499.99999"
   sodipodi:docname="Aplicado_Escuro.svg"
   inkscape:version="1.4.4 (dcaf3e7, 2026-05-05)"
   xmlns:inkscape="http://www.inkscape.org/namespaces/inkscape"
   xmlns:sodipodi="http://sodipodi.sourceforge.net/DTD/sodipodi-0.dtd"
   xmlns:xlink="http://www.w3.org/1999/xlink"
   xmlns="http://www.w3.org/2000/svg"
   xmlns:svg="http://www.w3.org/2000/svg">
  <defs
     id="defs1">
    <linearGradient
       id="linearGradient42"
       inkscape:collect="always">
      <stop
         style="stop-color:#001f71;stop-opacity:1;"
         offset="0"
         id="stop43" />
      <stop
         style="stop-color:#0083ef;stop-opacity:0.2019802;"
         offset="1"
         id="stop44" />
    </linearGradient>
    <linearGradient
       id="linearGradient40"
       inkscape:collect="always">
      <stop
         style="stop-color:#0092fe;stop-opacity:1;"
         offset="0"
         id="stop41" />
      <stop
         style="stop-color:#013ba7;stop-opacity:1;"
         offset="0.48613256"
         id="stop42" />
      <stop
         style="stop-color:#011d68;stop-opacity:1;"
         offset="1"
         id="stop40" />
    </linearGradient>
    <linearGradient
       id="linearGradient13"
       inkscape:collect="always">
      <stop
         style="stop-color:#004ce7;stop-opacity:1;"
         offset="0.31741142"
         id="stop13" />
      <stop
         style="stop-color:#003dc4;stop-opacity:1;"
         offset="0.6201849"
         id="stop15" />
      <stop
         style="stop-color:#001557;stop-opacity:1;"
         offset="0.92295837"
         id="stop14" />
    </linearGradient>
    <linearGradient
       id="linearGradient11"
       inkscape:collect="always">
      <stop
         style="stop-color:#031857;stop-opacity:1;"
         offset="0"
         id="stop11" />
      <stop
         style="stop-color:#001f73;stop-opacity:1;"
         offset="1"
         id="stop12" />
    </linearGradient>
    <linearGradient
       id="linearGradient7"
       inkscape:collect="always">
      <stop
         style="stop-color:#001555;stop-opacity:1;"
         offset="0"
         id="stop7" />
      <stop
         style="stop-color:#0056e5;stop-opacity:1;"
         offset="0.5"
         id="stop9" />
      <stop
         style="stop-color:#00affe;stop-opacity:1;"
         offset="1"
         id="stop8" />
    </linearGradient>
    <linearGradient
       inkscape:collect="always"
       xlink:href="#linearGradient7"
       id="linearGradient8"
       x1="734.30646"
       y1="983.84814"
       x2="734.30646"
       y2="206.67517"
       gradientUnits="userSpaceOnUse"
       gradientTransform="translate(-286.18777,1.0987756)" />
    <linearGradient
       inkscape:collect="always"
       xlink:href="#linearGradient11"
       id="linearGradient12"
       x1="499.49799"
       y1="732.64789"
       x2="720.58936"
       y2="732.64789"
       gradientUnits="userSpaceOnUse" />
    <linearGradient
       inkscape:collect="always"
       xlink:href="#linearGradient13"
       id="linearGradient14"
       x1="665.82678"
       y1="693.64807"
       x2="904.72742"
       y2="606.69531"
       gradientUnits="userSpaceOnUse"
       gradientTransform="translate(-27.034514,145.02788)" />
    <linearGradient
       inkscape:collect="always"
       xlink:href="#linearGradient40"
       id="linearGradient41"
       x1="739.55005"
       y1="496.78671"
       x2="1143.5225"
       y2="702.62097"
       gradientUnits="userSpaceOnUse" />
    <linearGradient
       inkscape:collect="always"
       xlink:href="#linearGradient42"
       id="linearGradient44"
       x1="769.45935"
       y1="392.96982"
       x2="818.67017"
       y2="414.3317"
       gradientUnits="userSpaceOnUse" />
    <filter
       style="color-interpolation-filters:sRGB;"
       inkscape:label="Lightness-Contrast"
       id="filter16"
       x="0"
       y="0"
       width="1"
       height="1">
      <feColorMatrix
         values="1 0 0 0.1 -0 0 1 0 0.1 -0 0 0 1 0.1 -0 0 0 0 1 0"
         id="feColorMatrix16" />
    </filter>
  </defs>
  <sodipodi:namedview
     id="namedview1"
     pagecolor="#000000"
     bordercolor="#000000"
     borderopacity="0.25"
     inkscape:showpageshadow="2"
     inkscape:pageopacity="0.0"
     inkscape:pagecheckerboard="0"
     inkscape:deskcolor="#d1d1d1"
     inkscape:zoom="0.32177034"
     inkscape:cx="927.68028"
     inkscape:cy="178.69888"
     inkscape:window-width="1920"
     inkscape:window-height="1009"
     inkscape:window-x="-8"
     inkscape:window-y="-8"
     inkscape:window-maximized="1"
     inkscape:current-layer="g1" />
  <g
     inkscape:groupmode="layer"
     inkscape:label="Aplicado"
     id="g1"
     style="display:inline"
     transform="matrix(0.65830257,0,0,0.65830257,-39.189575,-142.31431)"
     sodipodi:insensitive="true">
    <text
       xml:space="preserve"
       style="font-size:141.914px;font-family:'Zen Dots';-inkscape-font-specification:'Zen Dots';writing-mode:lr-tb;direction:ltr;display:none;fill:#1ac2ff;fill-opacity:1;stroke-width:2.2174"
       x="2271.8037"
       y="869.14526"
       id="text4"
       inkscape:label="Texto 2"
       sodipodi:insensitive="true"><tspan
         sodipodi:role="line"
         id="tspan4"
         style="font-size:141.914px;fill:#1ac2ff;fill-opacity:1;stroke-width:2.2174"
         x="2271.8037"
         y="869.14526">.com.br</tspan></text>
    <text
       xml:space="preserve"
       style="font-size:425.741px;font-family:'Zen Dots';-inkscape-font-specification:'Zen Dots';writing-mode:lr-tb;direction:ltr;display:none;fill:#ffffff;fill-opacity:1;stroke-width:2.2174"
       x="1089.4542"
       y="700.25482"
       id="text3"
       inkscape:label="Texto 1"
       sodipodi:insensitive="true"><tspan
         sodipodi:role="line"
         id="tspan3"
         style="font-size:425.741px;fill:#ffffff;fill-opacity:1;stroke-width:2.2174"
         x="1089.4542"
         y="700.25482">plicado</tspan></text>
    <path
       d="m 2280.3186,869.14526 v -20.2937 h 22.7062 v 20.2937 z m 76.7754,0.70957 q -19.0165,0 -29.6601,-9.36632 -10.6435,-9.50824 -10.6435,-27.81514 0,-18.44882 10.6435,-27.81515 10.6436,-9.50824 29.6601,-9.50824 h 47.5412 v 16.32011 h -47.5412 q -9.2244,0 -14.1914,5.10891 -4.8251,5.1089 -4.8251,15.89437 0,10.64355 4.8251,15.75245 4.967,5.1089 14.1914,5.1089 h 48.9603 v 16.32011 z m 97.0691,0 q -19.0164,0 -29.66,-9.36632 -10.6435,-9.50824 -10.6435,-27.81514 0,-18.44882 10.6435,-27.81515 10.6436,-9.50824 29.66,-9.50824 h 26.2541 q 19.0165,0 29.6601,9.50824 10.6435,9.36633 10.6435,27.81515 0,18.3069 -10.6435,27.81514 -10.6436,9.36632 -29.6601,9.36632 z m 0,-16.32011 h 26.2541 q 9.2244,0 14.0495,-5.1089 4.967,-5.1089 4.967,-15.75245 0,-10.78547 -4.967,-15.89437 -4.8251,-5.10891 -14.0495,-5.10891 h -26.2541 q -9.2244,0 -14.1914,5.10891 -4.825,5.1089 -4.825,15.89437 0,10.64355 4.825,15.75245 4.967,5.1089 14.1914,5.1089 z m 79.33,15.61054 v -73.08571 h 94.6566 q 12.4884,0 18.3069,6.24422 5.8185,6.1023 5.8185,16.1782 v 50.66329 h -20.5775 v -48.10884 q 0,-8.65676 -8.7987,-8.65676 h -19.7261 v 56.7656 h -20.5775 v -56.7656 h -28.5247 v 56.7656 z m 134.3924,0 v -20.2937 h 22.7063 v 20.2937 z m 39.3102,0 V 767.67675 h 20.5775 v 101.46851 z m 3.5478,0 v -16.32011 h 48.9603 q 9.2244,0 14.0495,-4.96699 4.967,-5.1089 4.967,-15.18479 0,-10.21781 -4.967,-15.1848 -4.8251,-5.10891 -14.0495,-5.10891 h -47.5412 v -16.32011 h 47.5412 q 19.0165,0 29.6601,9.36633 10.6435,9.36632 10.6435,27.24749 0,17.73925 -10.6435,27.10557 -10.6436,9.36632 -29.6601,9.36632 z m 102.0361,0 v -73.08571 h 55.9142 q 12.3465,0 18.1649,6.24422 5.8185,6.1023 5.8185,16.1782 v 15.18479 h -20.8613 v -12.63034 q 0,-8.51484 -8.5149,-8.51484 h -29.66 v 56.62368 z"
       id="text2"
       style="font-size:141.914px;font-family:'Zen Dots';-inkscape-font-specification:'Zen Dots';fill:#1ac2ff;stroke-width:2.2174"
       inkscape:label="Texto 2"
       aria-label=".com.br"
       sodipodi:insensitive="true" />
    <path
       d="M 1112.87,796.04655 V 480.99821 h 157.5241 q 57.0493,0 88.9799,28.0989 31.9306,28.09891 31.9306,81.31653 0,53.64337 -31.9306,81.74228 -31.9306,28.0989 -88.9799,28.0989 h -95.7917 v 95.79173 z m 157.5241,-266.08813 h -95.7917 v 121.33619 h 95.7917 q 27.6732,0 42.1484,-14.90094 14.9009,-15.32667 14.9009,-45.98003 0,-30.22761 -14.9009,-45.12854 -14.4752,-15.32668 -42.1484,-15.32668 z m 159.2269,170.2964 V 395.85001 h 61.7325 v 304.40481 z m 108.5636,0 V 480.99821 h 61.7325 v 219.25661 z m -0.4257,-255.4446 v -48.10873 h 62.5839 v 48.10873 z m 221.385,257.57331 q -57.0493,0 -88.9799,-28.09891 -31.9305,-28.52465 -31.9305,-83.44523 0,-55.34633 31.9305,-83.44524 31.9306,-28.52465 88.9799,-28.52465 h 142.6232 v 48.96022 h -142.6232 q -27.6732,0 -42.5741,15.32667 -14.4752,15.32668 -14.4752,47.683 0,31.93057 14.4752,47.25725 14.9009,15.32667 42.5741,15.32667 h 146.8806 v 48.96022 z m 237.1377,-2.12871 q -34.485,0 -52.7919,-17.45538 -18.3069,-17.45538 -18.3069,-49.8117 0,-31.93057 18.3069,-49.38595 18.3069,-17.45538 52.7919,-17.45538 h 163.4845 v -10.21779 q 0,-25.9702 -25.5444,-25.9702 h -180.5142 v -48.96021 h 196.6923 q 38.7424,0 54.9206,17.88112 16.1782,17.45538 16.1782,49.38596 v 151.98953 z m 11.0692,-48.96021 h 152.4153 v -36.18799 h -152.4153 q -8.089,0 -12.7722,5.10889 -4.2574,4.68316 -4.2574,12.77223 0,8.08908 4.2574,13.19798 4.6832,5.10889 12.7722,5.10889 z m 530.8995,48.96021 V 395.85001 h -61.7324 v 304.40481 z m -10.6435,0 v -48.96021 h -146.8806 q -27.6732,0 -42.5741,-14.90094 -14.4752,-15.32667 -14.4752,-45.55428 0,-30.65336 14.4752,-45.55429 14.9009,-15.32668 42.5741,-15.32668 h 142.6232 v -48.96021 h -142.6232 q -57.0493,0 -88.9799,28.0989 -31.9306,28.09891 -31.9306,81.74228 0,53.21762 31.9306,81.31653 31.9306,28.0989 88.9799,28.0989 z m 169.8705,2.12871 q -57.0493,0 -88.9799,-28.09891 -31.9306,-28.52465 -31.9306,-83.44523 0,-55.34633 31.9306,-83.44524 31.9306,-28.52465 88.9799,-28.52465 h 78.7621 q 57.0492,0 88.9798,28.52465 31.9306,28.09891 31.9306,83.44524 0,54.92058 -31.9306,83.44523 -31.9306,28.09891 -88.9798,28.09891 z m 0,-48.96022 h 78.7621 q 27.6731,0 42.1483,-15.32667 14.9009,-15.32668 14.9009,-47.25725 0,-32.35632 -14.9009,-47.683 -14.4752,-15.32667 -42.1483,-15.32667 h -78.7621 q -27.6732,0 -42.5741,15.32667 -14.4752,15.32668 -14.4752,47.683 0,31.93057 14.4752,47.25725 14.9009,15.32667 42.5741,15.32667 z"
       id="text1"
       style="font-size:425.741px;font-family:'Zen Dots';-inkscape-font-specification:'Zen Dots';fill:#ffffff;stroke-width:2.2174"
       inkscape:label="Texto 1"
       aria-label="plicado"
       sodipodi:insensitive="true" />
    <g
       id="g2"
       inkscape:label="Logo"
       style="stroke-width:0.99954;stroke-dasharray:none;filter:url(#filter16)"
       sodipodi:insensitive="true">
      <path
         style="display:inline;fill:url(#linearGradient14);stroke-width:0.99954;stroke-dasharray:none"
         d="m 821.96702,728.47192 -130.8221,-0.0902 c -4.89484,0.50984 -8.13446,2.57144 -10.10037,5.82714 l -49.86226,106.44036 c -1.97196,8.04205 3.36944,14.16595 9.84924,14.37563 l 233.86246,-0.38848 c 5.20623,0.78479 8.01006,4.11044 10.46528,7.38104 l -58.24781,-127.0316 c -1.14437,-2.38154 -2.90863,-6.08558 -5.14444,-6.51386 z"
         id="path5"
         sodipodi:nodetypes="cccccccccc"
         inkscape:label="Camada 3"
         sodipodi:insensitive="true" />
      <path
         style="display:inline;fill:url(#linearGradient41);stroke-width:0.99954;stroke-dasharray:none"
         d="m 714.84206,492.89176 218.52069,473.2538 c 2.9012,4.94263 6.8273,8.76728 13.7347,9.3396 l 208.76735,-0.54939 c 10.4231,-2.96254 13.3625,-10.60235 12.0866,-20.87674 L 835.02233,223.92265 c 0.20664,2.02604 2.44727,6.19177 0.17499,11.00871 -27.6678,58.65221 -99.62036,213.85271 -120.35526,257.9604 z"
         id="path4"
         sodipodi:nodetypes="ccccccsc"
         inkscape:label="Camada 2"
         sodipodi:insensitive="true" />
      <path
         style="display:inline;fill:url(#linearGradient44);stroke-width:0.99954;stroke-dasharray:none"
         d="M 868.38038,297.3619 750.70756,570.41067 C 736.94505,539.42411 716.48368,496.18798 715.90332,493.54806 785.16747,338.34629 762.30231,384.08906 837.8899,230.2982 Z"
         id="path3"
         sodipodi:nodetypes="ccccc"
         inkscape:label="Sombra 2"
         sodipodi:insensitive="true" />
      <path
         style="display:inline;fill:url(#linearGradient12);stroke-width:0.99954;stroke-dasharray:none"
         d="M 842.87812,241.49334 512.26919,961.75857 c -1.88132,3.09116 -4.46015,7.18096 -9.10806,9.50373 -3.65498,1.82656 -10.35301,3.68365 -12.08434,3.91105 L 499.498,961.71 c 3.34948,-1.65095 4.87456,-2.84856 5.94854,-5.48722 69.26415,-155.20177 256.66153,-572.86211 332.24912,-726.65297 z"
         id="path2"
         sodipodi:nodetypes="ccsccccc"
         inkscape:label="Sombra 1"
         sodipodi:insensitive="true" />
      <path
         id="path1"
         style="display:inline;fill:url(#linearGradient8);stroke-width:0.99954;stroke-dasharray:none"
         inkscape:label="Camada 1"
         d="m 629.60352,217.00781 c -5.50972,1.01583 -8.94425,4.13944 -11.53711,7.69141 L 508.46289,445.55273 c -3.91312,4.42938 -8.08339,6.54537 -12.36133,7.69141 l -260.4082,0.27539 c -6.09228,-18.07534 -18.00359,-29.68511 -40.38086,-29.66601 -27.60005,3.75743 -37.6644,19.93642 -38.66797,42.02734 3.13496,26.21428 17.56427,38.73252 41.41406,39.83008 19.82891,-1.01998 31.79873,-11.53035 37.90821,-29.11719 l 353.4707,1.55273 c 14.88092,3.3143 12.00612,21.79929 0.38867,22.53125 l -98.67383,-0.38671 c -6.03324,0.70034 -9.66383,3.80183 -12.04296,8.15625 l -22.14258,46.61718 c -2.65643,3.57219 -6.86031,7.238 -13.20899,10.10157 H 139.58203 c -7.39392,-18.58416 -19.76451,-29.62779 -39.23633,-29.91211 -28.495314,2.49285 -39.73505,18.64926 -40.81445,42.34375 3.77991,27.93429 19.442431,36.79953 38.87109,39.62304 19.20313,-1.03559 33.61089,-9.05858 40.01368,-28.74609 l 398.57617,-0.38867 c 13.62096,2.64962 12.74107,20.34435 0.38867,22.14258 h -98.67188 c -5.14929,1.26 -9.45068,3.61062 -12.04296,8.1582 l -24.86329,52.60156 c -2.339,5.08573 -7.64182,9.6602 -13.98437,10.7207 H 233.98047 c -5.35537,-19.42654 -18.80575,-27.9891 -38.07031,-28.74804 -28.44315,2.8295 -37.41494,19.37117 -40.01172,40.40234 2.88882,28.12145 18.08656,39.01029 39.23633,41.56641 20.78755,-1.26886 33.82967,-11.01998 39.23437,-29.13672 l 250.19531,-0.10352 c 11.08605,0.76496 13.31595,19.61189 0,22.25 l -98.88867,0.13672 c -5.36472,0.19222 -9.08353,3.1768 -11.53711,5.90625 L 266.45898,954.83594 c -3.74344,13.03023 2.56428,18.01973 11.53711,20.87695 l 212.88672,-0.54883 c 4.56478,-0.88327 9.07673,-5.72217 12.55078,-13.87695 0,0 258.84147,-573.56085 334.37027,-730.82255 -1.67812,-6.79021 -6.39886,-12.52132 -13.85346,-14.28083 z M 197.3457,444.80469 c 10.40594,-4.1e-4 18.84182,8.69606 18.8418,19.42383 2e-5,10.72777 -8.43587,19.42423 -18.8418,19.42382 -10.40593,4.1e-4 -18.84181,-8.69606 -18.84179,-19.42382 -2e-5,-10.72777 8.43586,-19.42424 18.84179,-19.42383 z m -97.11914,110.91015 c 10.72729,-2e-5 19.42356,8.65253 19.42383,19.32618 -2.8e-4,10.67364 -8.69655,19.32619 -19.42383,19.32617 -10.727281,10e-6 -19.423546,-8.65253 -19.423826,-19.32617 2.74e-4,-10.67364 8.696541,-19.32619 19.423826,-19.32618 z m 96.3418,118.29102 c 10.29808,2e-4 18.64628,8.3484 18.64648,18.64648 -1.9e-4,10.29809 -8.34839,18.64629 -18.64648,18.64649 -10.29809,-2e-4 -18.64629,-8.3484 -18.64648,-18.64649 2e-4,-10.29808 8.3484,-18.64628 18.64648,-18.64648 z"
         sodipodi:nodetypes="cccccccccccccccccccccccccccccccccccccccccccscscscscsccccc"
         sodipodi:insensitive="true" />
    </g>
  </g>
</svg>
